<svg id="Layer_1" data-name="Layer 1" xmlns="http://www.w3.org/2000/svg" viewBox="0 0 468.35 468.35"><defs><style>.cls-1{fill:#647787;}</style></defs><path class="cls-1" d="M298.8,15.89h0l-98.35-.23h0c-103.73,0-185,81.26-185,185,0,97.18,75.57,170.88,177,174.77v90.78a20.38,20.38,0,0,0,2.8,9.57,17.76,17.76,0,0,0,24.55,5.42c6.25-4,153.49-98.15,191.79-130.57,45.12-38.18,72.07-94.11,72.16-149.67v-.39C483.61,97,402.42,15.92,298.8,15.89Zm89.81,307.6c-26.9,22.77-115.3,80.76-160.6,110.11V358a17.8,17.8,0,0,0-17.79-17.79H200.8C114,340.23,51,281.53,51,200.66c0-83.81,65.62-149.44,149.41-149.44l98.31.23h0c83.77,0,149.37,65.59,149.44,149.3C448.15,246.05,425.87,291.93,388.61,323.49Z" transform="translate(-15.4 -15.65)"/></svg>