<svg id="Layer_1" data-name="Layer 1" xmlns="http://www.w3.org/2000/svg" viewBox="0 0 453.1 426.35"><defs><style>.cls-1{fill:#647787;}</style></defs><path class="cls-1" d="M249.57,463h-.31C191,461.92,23,310.13,23,166.38,23,97.28,80,36.65,144.83,36.65c51.62,0,86.36,35.64,104.74,61.51C268,72.29,302.67,36.65,354.29,36.65c64.9,0,121.83,60.63,121.83,129.73,0,143.75-168,295.54-226.24,296.62ZM144.83,70.46c-46.87,0-88,44.83-88,95.92,0,129.42,158.54,261.4,192.73,262.81C283.76,427.78,442.3,295.8,442.3,166.38c0-51.09-41.12-95.92-88-95.92-57,0-88.8,66.18-89.09,66.84-5.2,12.68-26.06,12.68-31.26,0C233.65,136.64,201.84,70.46,144.83,70.46Z" transform="translate(-23.02 -36.65)"/></svg>