<svg id="Layer_1" data-name="Layer 1" xmlns="http://www.w3.org/2000/svg" viewBox="0 0 457.44 306.35"><defs><style>.cls-1{fill:#647787;}</style></defs><path class="cls-1" d="M474.42,309.6a13.19,13.19,0,0,0-18.67,0l-44.81,44.8V162.67a66.1,66.1,0,0,0-66-66H227.85a13.21,13.21,0,1,0,0,26.41H344.92a39.66,39.66,0,0,1,39.61,39.61V354.39L339.74,309.6a13.2,13.2,0,1,0-18.67,18.67l67.33,67.34a13.19,13.19,0,0,0,18.67,0l67.35-67.34A13.19,13.19,0,0,0,474.42,309.6Z" transform="translate(-20.85 -96.65)"/><path class="cls-1" d="M271.31,376.59H154.22A39.66,39.66,0,0,1,114.61,337V145.25l44.8,44.81a13.21,13.21,0,0,0,18.68-18.68L110.74,104a13.19,13.19,0,0,0-18.67,0L24.72,171.38a13.21,13.21,0,0,0,18.67,18.68L88.2,145.25V337a66.1,66.1,0,0,0,66,66H271.31a13.21,13.21,0,1,0,0-26.41Z" transform="translate(-20.85 -96.65)"/></svg>