<?xml version="1.0" encoding="utf-8"?>
<!-- Generator: Adobe Illustrator 25.0.0, SVG Export Plug-In . SVG Version: 6.00 Build 0)  -->
<svg version="1.1" id="Layer_1" xmlns="http://www.w3.org/2000/svg" xmlns:xlink="http://www.w3.org/1999/xlink" x="0px" y="0px"
	 viewBox="0 0 5000 3608" style="enable-background:new 0 0 5000 3608;" xml:space="preserve">
<style type="text/css">
	.st0{fill:#25B135;stroke:#F9F9F9;stroke-width:0.15;stroke-linecap:round;stroke-linejoin:round;}
</style>
<path class="st0" d="M3078.7,169.35l-0.52,2.61l1.09,5.95l5.06,2.82l7.78-5.37l-7.17-10.58L3078.7,169.35z M2829.33,775.26
	l-4.76,3.96l1.26,3.92l3.5-1.63l10.42-1.92l-1.01-5.01l-6.28-4.92L2829.33,775.26z M2808.79,743.73l4.1,0.07l6.65-2.18l3.47-4.57
	l3.64,1.18l7.21-8.39l4.84-4.15l12.88-1.39l-8.7-10.64l-1.55-0.76l-12.04,4.12l-15.48,2.74l-6,5.74l-6.16,9.37l-1.41,8.39l1.11,2.66
	L2808.79,743.73z M3082.11,123.75l2.28-6.45l-4.03-3.14l-4.78,6.56l4.14,5.57L3082.11,123.75z M2598.42,649.22l1.07,4.74l5.08,4.62
	l3.99-4.4l-2.11-3.81l-0.61-7.15l-5.13-6.47l-2.23,5.47l-2.08,1.26l-1.94,4.37L2598.42,649.22z M2562.35,238.63l13.33-17.3
	l3.63-17.1l-4.53,1.14l-0.41,7.53l-1.56,5.03l-2.11,1.81l-3.64,3.19l-8.33,13.73l-3.56,3.38l0.46,4.23L2562.35,238.63z
	 M2541.9,257.82l8.51-6.95l0.82-4.07l-2.81,1.99l-16.97,8.4l-8.13,9.43l14.78-6.99L2541.9,257.82z M2553.41,635.65l1.08,4.2
	l1.58,0.49l5.59-0.4l1.99-7.99l-2.45-0.99l-5.93,0.9L2553.41,635.65z M2589.13,504.26l-9.19-3.73l-3.46-4.03l-0.43-4.03l4-12
	l2.5-3.64l2.62-1.02l5.84-6.58l-1.37-3.81l-1.88-2.17l-2.37-1.2l-3.81,8.65l-4.34,0.28l-4.04-3.92l-1.74-7.34l0.56-4.21l-4.32-0.54
	l-6.8,4.27l-4.58,6.86l-10.18,6.72l-1.27,13.83l1.55,10.91l-3.32,4.64l-5.3,3.44l2.6,1.62l9.08,0.53l17.66,4.35l10.59-0.66
	l12.24,1.85l3.46-4.45l1.81-5.84l-1.57-0.5L2589.13,504.26z M2585.52,639.85l1.49-0.7l2.57-2.95l-1.25-8.2l-2.92,3.94
	L2585.52,639.85z M3718.6,1087.67l3.03,0.08l2.22-1.07l0.15-1.35l-3.81-5.42l-2.18-6.57l-3.94,12.58L3718.6,1087.67z
	 M3861.33,1283.87l3-1.52l-2.55-7.67l-3.08-1.71l-0.35,5.57l-2.08,3.88l2.44,1.66L3861.33,1283.87z M4097.94,1623.75l2.38-2.73
	l0.59-6.77l5.38-16.82l19.49-44.51l0.85-8.44l-5.72-6.17l-1.48-17.47l-2.35-0.93l-3.15,1.05l-3.94,2.49l-3.47,4.94l3.98,1.76
	l5.19,8.88l-1.35,8.22l-3.57,6.4l-14.11,12.13l2.11,10.79l-0.86,5.15l-4.9,9.32l-2.09,10.2l2.83,17.6L4097.94,1623.75z
	 M3928.67,1426.08l2.17-1.32l3.2-4.12l-2-5.09l-4.25-7.22l1.06-6.4l-2.62-1.63l-2.92,0.31l-3.19-2.49l-8.08-2.97l-2.49,6.83
	l14.08,20.67L3928.67,1426.08z M4132.38,1778.47l2.01-1.5l-1.5-11.46l3.77-16.33l-3.21-0.82l-4.89,1.95l-1.39,8.94l1.07,9.65
	L4132.38,1778.47z M3092.54,133.13l5.56-5.81l-3.75-4.85l-7.47,0.84l-2.2,4.67l1.97,3.4L3092.54,133.13z M4130.51,1795.96
	l-0.47,15.97l2.87,4.15l2.44,0.53l8.03-27.59l-1.57-1.4l-8.07-1.71L4130.51,1795.96z M3713.76,1073l1.93-1.47l1.08-8.72l-3.38,2.38
	l-2.35,3.19l-1.82,4.02l2.48,1.04L3713.76,1073z M3806.42,1271.24l-0.04-4.26l-1.46-9.8l-3.45,2.46l-0.55,7.44l2.25,7.1
	L3806.42,1271.24z M3450.63,894.22l7.01,6.76l4.14,8.43l5.9,3.26l2.63-3.47l1.39-4.66l-4.02-7.1l-1.91-9.09l-2.73-0.52l-1.71,1.49
	l-4.12,1.32l-8.2-0.33L3450.63,894.22z M2179.25,218.42l7.45,14.53l1.84-1.46l3.33-12.55l-3.01-5.88l-0.34-10.21l-1.35-2.7
	l-3.83,5.59l-5.04,0.83l3.04,7.39L2179.25,218.42z M372.21,1640.99l-0.03-6.89l-3.29-6.71l-10.63-29.24l-3.3,1.12l-3.63,3.79
	l5.23,21.15l17.94,30.93l2.48-4.11l-3.24-7.88L372.21,1640.99z M3648.56,3158.92l-1.73-1.11l-2.35-0.22l-7.09,2.02l0.9,2.48
	l5.68,5.36L3648.56,3158.92z M3391.86,2923.02l-5.6-4.4l-12.25,0.52l-0.89,2.39l-0.52,5.36l5.18,3.29L3391.86,2923.02z
	 M3658.25,3336.18l-1.2-4.18l-2.48-3.78l0.02-3.99l1.31-8.55l-2.63-12.51l0.84-18.9l-0.9-10.16l0.27-10.01l2.09-12.82l-0.56-12.95
	l-1.37-6.49l-0.57-6.57l0.69-18.64l-7.24-10.2l-17.02-8.17l-5.98-0.15l-8.94,10.28l-5.16-0.1l-18.29-2.98l-3.96,3.41l-7.33,9.8
	l-4.29,4.15l-6.26-1.78l-6.27-3.22l-4.81,0.37l-4.68,2.62l-10.56,1.2l-10.82-0.21l-6.57,2.81l-5.86,4.49l-1.92,5.66l1.13,6.51
	l-5.8-6.03l-5.84-3.95l-6.8,4.23l-7.11,2.9l-23.98,2.34l-19.26-5.03l-27.03-10.36l-4.3-3.04l-3.88-3.89l-4.46-2.54l-10.23-3.87
	l-4.01-4.44l-4.52-1.29l-5.2,0.65l-7.47-3.52l-6.19-6.24l-5.48-0.53l-6.13,2.82l-10.8-0.43l-20.94-7.19l-9.33-5.46l-0.83,12.22
	l-5.93,21.89l1.52,10.86l3.3,12.4l6.21,16.74l0.16,5.39l1.1,3.2l12.84,25.06l13.05,20.37l17.06,21.54l1.94,9.81l-2.25,10.04
	l5.56-0.67l3.42-4.92l0.8,4.89l1.93,4.12l14.59,14.23l1,3.78l-5.51,11.75l-3.12-9.69l-5.78-7.64l-16.25-12.06l3.57,25.2l2.9,9.97
	l20.48,43.04l2.8,2.79l4.65,1.87l3.97,3.42l6.68,8.78l11.31,19l6.58,5.47l9.53-1.72l13.98,3.86l4.8-1.07l2.94,1.64l1.71,4.42
	l-10.98-0.1l-10.67,2.46l-1.19,3.66l2.93,4.13l2.8,11.61l13.4-3.9l21.14,0.76l12.64-1.21l14.06,10.56l12.61,1.97l3.7-0.77
	l7.54-12.49l4.67-15.05l2.92-5.73l3.86-4.88l-8.38-6.47l-0.25-3.27l1.13-3.79l16.42,11.25l6.73-4.52l1.38-10.11v-6.25l1.96-4.44
	l4.13-2.06l1.65-5.53l0.47-4.28l-4.27-9.7l-0.37-5.59l10.27,11.6l4.14,15.74l7.87-4.16l1.15-2.48l-1.23-10.88l3.54-3.64l11.17,2.96
	l9.94,6.33l0.69,2.93l-0.66,2.95l-2.47,2.61l-8.09-2.66l-3.67,4.59l4.76,11.52l8.11,11.02l4.92-2.81l9.97-1.5l3.31-2.81l-2.16-22.19
	l-3.98-16.24l-0.28-17.77l1.15-9.67l4.59-7.48l3.34-7.85l-0.42-10.19l1.67-9.6l4.09-9.99l5.69-7.45l2.68-1.73l-1.4-2.06l2.42-6.43
	l4.34-4.72l2.61,5.8l-3.47,2.25l-1.99,2.55l6.78,4.24l2,3.78l0.69,4.15l-0.71,5.15l1.25,3.98l3.82,0.74l1.06-5.19l-1.07-6.28
	L3658.25,3336.18z M3358.44,2941.72l13.3-0.86l7.85,4.04l-0.54-2.04l-3.24-5.13l-2.48-2.02l-6.55-1.47L3358.44,2941.72z
	 M1985.96,244.91l8.32,16.17l12.41,11.7l28.56,17.31l31.84-20.26l8.46-12.07l7.07,0.5l0.86-7.36l6.6-6.82l-1.52-2.04l-4.57-3.07
	l-3.4-6.51l-10.87-6.23l-4.87-5.35l-4.76,4.95l-7.15,1.93l-10.98,6.69l-3.33,0.51l-6.96-2.87l-14.98,7.05l-12.45-0.78l-5.51-6.59
	l-3.79-2.49l-8.63-9.05l-2.22-0.25l-1.71,1.1l-1.5,2.14l3.38,8.45L1985.96,244.91z M3654.2,3100.7l-2.55-2.09l-8.59-3.1
	l-16.57-19.82l-6.29-3.46l-8.76,11.56l-6.72,4.25l4.21,4.4l5.97-0.55l2.77,7.23l-1.44,4.74l12.53,17.29l2.06,4.49l2.5,3.08
	l2.99,2.34l9.77-3.13l8.31-6.73l1.32,0.12l0.9-3.2l-6.76-4.93l3.64-3.74L3654.2,3100.7z M4643.46,4819.59l-5.7,25.54l0.86,5.84
	l3.13-5.1l6.23-17.4l1.24-13.23L4643.46,4819.59z M2521.38,460.72l-2.35,1.55l-1.13,2.59l0.03,3.4l8.5,1.83l2.21-1.08l3.55-3.16
	l-1.68-7.98l-3.92-3.96L2521.38,460.72z M4146.82,1869.74l-11.28-19.32l-2.47-15.14l-3.98-12.96l-17.53-36.47l-7.57-21.04
	l4.23-21.16l-7.28-67.69l7.54-33.77l-3.68-4.12l-9.08-5.2l-4.04-5.37l-6.01-12.66l-0.66-25.42l-11.6-15.64l-12.59-7.14l-8.49-12.84
	l-5.72-10.68l-0.83-5.92l-3.43-10.03l-9.64-6.9l-6.64-3.28l-14.2-10.04l-6.95-10.17l-14.25-28.9l-6.63-7.68l-13.13-8.32l-10.78-0.47
	l-6.96-2.08l-24.68-18.42l-7.7-4.02l-6.17-8.64l-9.23-9.26l-5.38-6.85l-8.21-7.25l-5.61-27.58l-0.02-26.78l-1.77-31.93l-8.53-15.42
	l-4.63-4.96l-5.07,1.63l-0.39,9.97l1.42,6.79l-3.57,0.32l-12.71-8.8l-15.89-9.37l-8.58-10.48l-6.24-9.84l-5.19,0.38l-3.67,1.55
	l-3.67,12.07l5.94,20.83l-2.9,2.84l-5.05-4.81l-9.13-10.89l-4.75,3.55l-6.32,1.39l-5.47-10.95l-4.63-6.89l-6.69-22.8l-5.97-25.13
	l-0.56-18.16l-11.65-9.97l-4.58-17.15l-3.63-4.79l-3.41-12.14l-13.47-15.9l-13.83-11.23l-11.48-10.61l-9.87-15.05l4.32-10.88
	l7.01,2.32l7.44-1.05l-5.95-11.07l-5.75-7.43l-14.83-13.95l-6.88-3.51l-14.92-2.06l-16.54-12.71l-10.14-5.52l-7.15-0.87l-8.29-1.96
	l-5.82-7.19l-10.34-2.38l-14.59-14.21l-7.12-14.32l-3.63-5.28l-4.89-3.97l-7.19,2.39l-5.91,1.08l-13.01-2.02l-4.29-5.83l-8.41-7.37
	l-16.21-1.96l-12.78-4.65l-9.77-4.62l-9.9-5.84l-9.13-9.78l-8.07-13.06l1.38-16.77l2.01-10.85l-10.28-4.21l-17.81-22.74l-0.87-9.31
	l4.77-19.01l4.84-32.75l-7.1-24.31l-13.8-29.7l0.95-15.05l-6.93-0.21l-7.75-2.95l-10.88-14.63l-8.25-9.63l-5.55-8.86l-6.01-12
	l0.97-9.64l1.44-6.48l0.57-17.18l-7.71-16.68l-2.42-17.06l-7.27-21.37l2.01-14.19l-1.58-11.7l-2.29-10.1l2.36-6.46l1-8.18
	l-10.05-8.18l-10.78-6.25l-13.89-11.06l-24.98-17.22l-5.75-13.05l-10.58-11.63l-14.13,4.5l-10.43,2.13l-9.71,8.76l-13.44,6.47
	l-13.02-5.85l-6.16-4.94l-4.58-17.44l-5.96-19l-5.05-9.54l-3.81-11.51l3.56-28.08l-5.33-13.2l-1.63-19.75l-5.07-22.51l-5.61-11.27
	l0.37-9.06l-10.45-13.29l-3.32-9.53l-5.93-3.43l-7.5-5.43l-1.05-7.3l0.53-5.3l4.5-8.82l2.43-11.42l-10.5-2.86l-7.27-0.48l-5.09-3.6
	l-5.74-5.58l-2.05-17.77l0.22-18.8l-1.51-11.77l-3.13-8.73l-2.21-9.26l-5.29-9.84l-15.9-12.76l1.19-5.16l3.7-6.68l-5.63-3.84h-8.25
	l-4.63,8.9l-7.5,7.69l-14.76,5.85l-2.74,30.66l-9.19,33.68l-8.31,24.86l1.51,7.53l-0.62,7.34l-4.49-3.3l-3.96-4.11l-6.04,9.83
	l-10.94,25.5l-1.01,13.22l6.43,3.58l4.47,3.5l5.38,1.14l2.45,3.26l1.35,6.41l3.45,5.51l-0.89,5.94l-4.15-2.33l-8.73,0.05l-4.45,5.16
	l-11.29,10.37l2.97,29.77l-5.28,15.67l-5.09,12.15l-5.75,23.03l0.75,12.21l5.12,8.69l5.49,12.69l-3.3,17.51l-3.37,12.52l7.52,36.25
	l2.05,19.34l-4.11,13.16l-12.12,38.92l-5.45,28.46l1.74,15.68l-5.25,14.42l-6,23.08l-6.75,17.42l-23.62,35.14l-4.69,17l-7.97,21.2
	l-16.98,12.37l-12.82,7.73l-28.14,7.64l-16.22-0.17l-8.39-4.69l-4.8-4.04l-19.13-6.75l-23.25-15.31l-17.93-4.96l-8.8-15.36
	l-0.9-6.37l-3.19-8.31l-9.38-10.95l-17.69-3.69l-18.16-7.9l-11.2,1.12l-24.33-6.79l-16.19-9.66l-14.81-13.39l-19.52-23.2
	l-16.55-6.28l-21.19-9.59l-12.16-8.01l-7.38-3.88l-8.19-5.99l-7.42,1.34l-12.88,0.18l-8.07-5.64l-1.07-4.42l1.25-3.47l0.45-6.34
	l-2.83-0.94l-2.84,0.02l-2.37,1.69l-3.28,1.25l-11.36-4.87l-15.92-8.09l-3-7.12l-5.03-8.72l-22.01-12.64l-12.78-10.45l-28.17-15.15
	l-7.23-7.33l-2.36-6.4l-2.13-9.24l6.35-9.63l6.12-6.79l19.2-28.25l5.77-4.96l7.19-7.67l6.64-20.64l3.27-11.79l-5.63-17.82
	l-0.17-29.96l22.28-11.63l6.18-1.52l5.77-2.54l6.57,3.62l4.42,5.64l4.59-1.03l12.44-20.88l-1.99-8.69l-5.16-7.43l1.79-4.57
	l38.31-40.92l-4.67-10.01l-5.7-2.3l-10.92,0.69l-10.24-8.74l-6.49-16.55l-9.04-0.58l-16.17,16.95l-1.89,3.9l3.92,2.2l3.42,10.28
	l-6.34,12.07l-6.34,0.13l-10.35-1.2l-4.7-8.63l-2.14-13.12l-6.6-3.7l-7.5,2.48l-6.21,4.61l-4.38,1.33l-3.69-3l-0.17-5.48l9.5-9.1
	l7.95-5.84l0.59-2.18l-5.77-1.77l0.89-4.25l7.37-7.49l-3.47-0.39l-9.03,8.03l-9.61,4.62l-12.77,9.83l-18.33,6.45l-12.54,8.7
	l-17.58-2.63l-16.33-8.58l-3.57-4.5l-8.03-6.61l-17.94,7.19l-11.26-0.76l-6.19-2.54l-10.64-1.7l-9.12-6.35l-21.96-10.17l-23.3-1.95
	l-11.32,0.46l-8.4-5.25l-8.12-3.02l-15.95-2.12l-6.62-7.88l-8.34-15.87l-5.96-4.28l-9.7-1.52l-10.27,7.31l-6,3.44l-11.71-13.03
	l-20.84-13.46l-6.65-1.83l-3.52,3.27l-2.54,6.21l-3.95,0.58l-4.64-2.82l-8.14-7.96l-5.32-1.46l-13.97,8.5l0.99,2.92l11.4,4.33
	l11.97,11.85l5.67,2.44l13.47-3.1l18.41,2.24l18.57,14.8l-2.75,7.34l-1.39,10.22l0.5,11.18l-0.45,7.57l7.69,8.3l-3.4,0.63
	l-8.64-1.86l-6.83,2.32l-6.43,3.91l-2.85,11.18l-3.64-5.27l-11.09-5l-6.62,3.85l-11.04,5.06l-10.01-2.02l-6.42-2.57l-15.09,4.35
	l-26.88-0.11l-8.98-6.3l-2.64-10.74l-2.07-2.64l-2.44,4.82l-4.25,5.54l-16.26,1.1l-2.44,2.28l0.98,5.39l-0.62,6.75l-6.24,0.5
	l-7.73,1.78l0.85,8.28l1.43,6.46l-2.88,3.22l-8.48-5.89l-3.78-6.36l-5.95-1.96l-4.64,2.27l-1.22,5.67l0.74,14.65l-4.25,1.64
	l-10.99-0.54l-5.07,2.76l-7.64,18.38l-13.98,7.02l-2.13,9.6l-0.97,8.14l11.65,14.79l-5.64,7.58l-5.92,6.2l-5.9,2.63l-12.58,2.41
	l-9.24,6.73l-3.89,7.13l-0.74,6.75l-2.57,8.69l-4.05,10.3l-0.8,5.59l-8.42,5.52l-14.98,16.57l-7.51,16.94l9.82,9.21l11.57,6.62
	l8.4-0.21l0.07,1.69l-8.77,6.8l5.44,7l8.45,6.51l5.13,0.96l3.76,2.77l-7.96,1.53l-11.8,0.57l-2.28,7.1l1.45,8.15l2.06,7.11
	l-1.45,5.02l-4.39-3.46l-1.92-5.31l-10.09-10.83l-7.26-3.3l-10.61-2.56l-3.17,3.28l0.4,16.51l-2.06,7.6l-3.79-4.29l-0.94-12.09
	l-9.98-9.79l-39.45-9.8l-5.58-0.61l-9.18,1.28l-6.31,3.88l-0.62,3.81l-4.2,3.08l-6.82,3.53l-6.23,5.39l-4.05,4.5l-0.19,5.6
	l5.07,10.56l2.96,3.04l-0.4,5.02l-4.94-5.24l-4.32-1.68l-4.08,8.2l-3.95,1.64l1.03-22.9l4.1-15.54l3.31-9.17l3.69-7.16l-1.77-3.81
	l-27.34-21.45l-11.58-17.58l-8.45-9.87l-13.24-9.5l-6.86-5.98l-15.35-9.14l-18.09-6.37l-8.7-8.56l-9.6-3.08l-11.91,4.19l-1.03,7.99
	l1.51,7.76l-9.48,12.69l-10.21,6.77l-8.15-7.76l-7.4-5.67l-7.47,4.08l-2.26,7.01l-3.76,2.59l-2.83-4.75l-4.1-10.53l-6.08-4.19
	l-6.08,1.85l1.82,8.35l3.54,4.59l-0.98,6.65l-4.41,3.06l-0.82,6.27l-2.63,8.36l0.38,11.67l-6.97,2.45l-5.17,9.24l-3.78-1.96l-0.98-6
	l-1.87-6.13l-7.57-2.35l-2.81,5.73l-1.67,1.94l-2.69,0.39l1.8-4.67l0.03-8.73l2.18-9.14l-7.17-3.29l-2.86,2.03l0.12,7.91
	l-1.73,11.51l-7.1,1.8l-6.32,5.17l-9.38,0.1l-4.75,2.48l-1.69,6.09l-8.19,6.28l0.15,7.51l5.51,7.64l0.36,6.63l13.12,6.74l-0.77,6.75
	l-1.86,3.13l-4.98-1.23l-10.61-5.83l-10.8-1.24l-3.24-2.68l-1.32,1.93l-0.06,4.5l-4.17,3.3l-6.02,0.31l-7.01,4.82l5,7.57l-0.93,2.98
	l2.47,3.62l10.72,0.66l4.57-0.97l0.47,6.43l-1.4,6.44l-4.35,2.3l-4.14-5.91l-20.68-11.3l-5.41-1.1l-1.15,3.55l1,4.62l-4.34,5.62
	l-7.72,7.36l-5.22-1.98l-6.17,1.72l-4.01,12.57l-1.39,12.58l6.87,8.78l4.58,11.59l9.55-14.24l3.89-1.64l0.02,6.15l-3.73,6.4
	l-2.2,7.86l-0.76,8.9l-6.25,0.25l-7.03-1.19l-1.69,2.83l-2.63,6.62l1.55,9.13l4.63,3.46l10.81-0.32l9.24,0.66l8.19,3.29l1.39,2.79
	l-7.43-1.57l-15.15,0.86l-7.21-1.25l-14.22,0.59l-10.67-5.21l-5.25-5.22l-7.97-1.32l-7.76,2.09l-4.3,7.3l-5.23,1.79l-12.16-18.08
	l-7.6-1.2l-3.78,4.2l3.68,11.34l-1.91,6.98l-4.17,5.2l-5.25-0.32l-3.24,2.21l2.57,4.76l8.32,12.14l6.84,5.3l6.02,7.38l3.09,6.37
	l7.3-0.29l1.69,5.14l-4.19,7.47l0.15,11.83l-2.99,0.61l-4.22-2.61l-8.37-7.31l-4.33-1.43l-2.25,2.11l-0.68,5l2.02,13.1l-4.3,18.68
	l0.9,5.43l-0.78,4.65l-3.54-3.36l-4.33-7.25l-8.92-11.2l-10.95-24.44l-11.56-16.58l-6.32-14.1l-9.68-26.55l-5.03-0.4l-6.42,11.42
	l-7.09,15.04l-4.82,7.4l-11.43,7.37l-7.03,7.43l-8.45,2.63l-9.27,8.49l-6.7,7.3l-9.4,16.99l-1.59,10.97l0.4,11.53l4.09,16.39
	l4.3,23.77l6.38,2.52l5.15,4.02l-1.45,7.19l-7.78,4.52l-23.88,22.49l-16.1,8.01l-4.57,5.65l-5.87,11.91l-8.52,15.05l-3.85,9.47
	l-8.95,18.4l-14.54,20.55l-14.74,15.22l-16.97,12.18l-11.16,5.85l-41.51,17.06l-22.15,6.51l-40,4.72l-16.97,7.71l-21.2-2.51
	l-23.73-1.64l-32.95,25.75l-27.36,6.26l-24.18,4.69l-10.45,4.24l-23.8,14.85l-13.85,6.79l-25.91,7.6l-10.59-0.79l-14.35-6.99
	l-13.41,1.62l-14.84-1.02l-12.09,0.65l-9.41,5.77l-55.52,30.72l-10.96,8.37l-11.39,12.19l-16.37,11.24l-13.06,12.98l-27.48,13.5
	l-28.25,10.24l-13.98,8.51l-9.93,11.56l-17.35,31.07l-3.67,7.84l-6.92,8.18l-9.18,2.97l-5.93,2.66l2.08-15.59l-6.63-13.84
	l4.64-26.45l-1.74-7.9l-9.43,5.14l-6.02,5.62l-15.25,38.29l-10.47,29.83l7.94,17.11l2.54,9.94l-0.02,10.67l-2.81,15.35l0.2,9.99
	l-0.93,13.29l-19.04,30.87l-5.89,13.44l-6.4,25.83l-0.78,11.97l0.44,17.89l8.01,15.67l6.14,9.7l9.48,28.05l11.35,18.65l18.7,37.53
	l20.67,30.42l1.33,11.63l-2.35,15.66l1.16,16.22l-3.71,4.78l-8,5.59l-9.18-7.18l-4.63-6.25l-5.84-22.97l-2.42-1.31l-3.93,10.07
	l-4.29,4.37l-3.93-2.98l-2.99-3.79l-0.76-3.98l1.33-4.72l1.42-17.22l-8.58-9.84l-7.63-10.56l-8.22-2.58l-5.04,4.76l-0.19,6.55
	l11.02,18.37l7.06,19.9l10.95,12.43l6.47,3.21l7.19,7.58l-1.53,16.77l-5.23,6.25l-4.36,3.17l-14.19-3.69l-3.27-12.09l-11.12-23.75
	l-3.59-9.19l-3.07-2.49l-1.23,4.53l0.23,8.18l-2.06,3.54l-2.16-0.36l-4.38-4.28l-3.96-2.29l-2.42,0.8l4.32,5.89l9.52,17.51
	l35.12,42.9l29.75,49.93l6.56,19.73l3.27,43.36l2.95,10.47l17.59,21.55l17.16,24.97l5.08,12.44l-0.11,10.65l3.53,10.11l21.32,27.41
	l9.53,29.43l1.16,10.76l-2.73,18.45l2.49,32.59l2.4,17.71l7.78,35.1l9.23,25.29l10.96,15.73l14.96,34.91l22.76,40.26l3.7,19.9
	l-1.19,52.94l-1.63,17.26l-5,2.96l-3.34,7.29l4.89,34.75l1.13,19.81l-7.33,18.65l-8.32,16.57l-14.61,11.32l-16.53,0.37l-7.72-6.59
	l-9.81-6.76l-1.69,30.12l-0.21,25.8l3.01,9.83l0.29,11.59l11.12,9.01l6.25-3.49l7.73-0.48l26.82,12.78l15.05,10.52l24.31,28.25
	l21.5,7.45l28.01,12.85l32.5,4.07l25.99,0.75l40.88,6.75l8.72-2.41l17.52-2.1l13.38-4.39l12.04-2.81l35.9-26.25l35.02-27.01
	l17.36-2.15l15.52-0.31l18.94-9.25l17.22-27.97l8.77-6.24l11.66-6.98l33.16-4.1l19.5,2.89l10.47-4.53l26.5-5.06l55.12-4.65
	l30.29,3.73l20.23-0.6l10.71,1.84l8.39,12.27l58.48-10.55l16.63-0.73l10.44,1.75l13.07,9.16l14.73-8.66l13.2,1.13l13.4-8.34
	l20.34-25.03l9.22-15.63l14.83-32.96l10.98-11.85l12.09-5.9l14.13-1.89l21.85-5.96l47.39-27.79l18.39-5.99l9.69-5.24l32.63-21.59
	l20.47-4.15l59.99,5.59l28.45-1.45l22-3.39l33.43-11.64l36.37-8.74l44.65-18.43l37.34-19.05l22.54-4.39l35.57-3.37l52.35-4.95
	l60.97,2.56l15.41-3.93l7.58-3.49l10.67-3.71l13.19,2.6l10.1,2.83l30.62,15.19l46.05,32.01l10.17,1.33l30.33-7.29l10.15,0.71
	l42.44,23.46l17.59,0.48l14.07-0.57l10.64,2.51l11.33,6.36l13.39,14.76l28.37,14.15l1.41,11.4l-2.06,7.44l-6.42,0.29l-5.41,1.58
	l6.82,23.89l11.92,19.31l28.6,2.61l10.39,6.76l6.72,7.61l5.19,12.1l3.93,18.93l14.31,15.79l13.38,13.47l3.13,5.54l6.29,19.09
	l2.4,5.57l5.22,18.86l7.66,21.55l-2.11,2.19l-4.54-0.45l-8.05-5.46l-7.06-6.12l-3.81,0.97l-4.33,4.19l-0.61,5.16l6.32-1.37
	l3.72,0.75l8.73,6.61l8.17,7.65l6.45,4.49l15.56,19.09l6.06-4.25l7.46-3.78l11.83,10.38l4.72,2.1l2.69-4.01l-4.47-18.61l-4.48-4.52
	l-1.08-6.61l5.56-4.75l2.72-5.65l13.19-13.98l28.9-41.75l8.89-4.79l10.24-9.15l13.8-6.99l14.28-8.3l9.14-3.2l8.94-1.72l9.99-7.67
	l10.91-20.76l8.22-24.61l8.77-10.85l13.44-11.53l10.33-16.06l-0.85-12.57l0.13-12.82l7.46,9.9l4.68,10.04l7.41,33.56l-6.37,7.36
	l-6.72,3.71l1.27,11.78l4.48,15.33l1.67,12.27l-14.09,12.93l-12.17,16.28l-14.61,31.58l-0.96,9.53l-2.29,13.28l0.89,11.67
	l2.28,11.29l-3.61,17.52l-5.91,15.65l-7.71,0.39l-5.26-0.58l-11.54,1.39l-10.65-0.94l-12.2,34.14l7.75,1.6l5.91-1.94l10.69-0.01
	l11.94-6.09l17.47-4.99l9.97,1.76l11.7-0.53l17.02-43.74l4.21-28.49l8.69-12.79l2.71-8.83l4.47-8.37l9.05,14.39l7.29,13.95
	l16.04,22.66l5.01,11.28l1.98,27.45l-10.39,31.78l-6.24,9.08l-7.54,7.91l-6.32,13.34l19.12,3.39l12.38-0.25l19.39-9.69l3.86-1.31
	l9.73-0.17l3.73-5.07l9.56-4.82l7.1-5.67l9.24-4.47l8.38,2.97l1.87,2.54l2.11,2.88l-3.08,6.26l-0.25,13.26l-5.5-1.44l-4.9-7.89
	l-6.11,2.04l-4.26,5.94l-9.14-1.87l1.5,3.9l4.92,7.59l19.34,14.63l20.63,19.41l7.73,9.17l16.82,29.21l11.98,30.98l-1,9.17
	l-5.85,16.51l-4.24,16.79l0.35,8.79l3.92,11.15l8.45,11.4l31.48,31.17l16.64,27.4l22.1,14.2l35.81,5.24l18.94,10.26l19.63,20.7
	l6.31,1.77l9.53,0.87l12.23-12.59l18.64,1.34l24.54,12.51l14.64-2.95l10.39,1.53l14.59,7.07l21.29,14l22.62,7.05l13.43,10.55
	l10.45,1.59l18.71,6.85l13.79-5.87l11.67-7.39l27.05-25.64l21.2-12.34l11.12-4.81l8.94-2.12l11.34-8.01l-7.07-5.66l-6.69,0.95
	l-11.41-3.19l6.52-3.71l6.83-2.74l32.93-19.13l8.73,5.65l6.04,6.33l6.56,8.67l-4.94,12.27l-4.38,5.78l-10.14,9.26l-12.24,0.36
	l-5.83-0.76l12.08,10.39l10.48,6.98l21.62-12.69l5.39-9.99l4.09-5.8l6.87-1.29l10.21,1.95l3.98,7.32l2.22,8.92l-7.41,2.43l-3.6,6.61
	l-2.52,6.28l12.89,8.06l6.62,5.11l7.99-0.13l9.23,1.23l6.97,11.83l6.52,13.66l7.73-3.77l4.83-3.59l8.26,3.44l8.95,10.73l7.25,12.21
	l0.75,5.13l5.6,2.36l5.29-3.62l2.53-5.14l-0.2-9.48l-1.4-14.96l-3.7-2.25l-8.43,8.11l-4.76-5.87l-6.47-6.25l0.12-6l7.01-3l5.94,1.3
	h7.42l39.3-5.25l50.28-48.1l22.01-17.66l22.9-13.1l23.69-8.42l12.31-2.74l63.6-4.54l33.08,1.47l17.03-3.33l7.89-4.44l13.4-12.15
	l9.37-7.43l11.51-2.08l2.76-9.09l0.05-9.75l2.19-10.15l-3.34-19.08l0.9-25.11l2.61-13.11l6.96-18.39l3.04-18.93l3.13-26.83
	l2.76-15.9l3.44-14.53l9.04-16.03l7.65-10.38l18.05-39.08l6.25-3.86l5.21,0.01l2.27-2.38l0.7-2.17l-1.54-1.57l-2.31-4.54l1.53-3.67
	l5.47-3.66l1.73,1.4l2.8-0.8l0.43-2l-2.63-10.7l3.81-15.04l4.61-26.26l5.24-11.8l3.07-9.39l12.09-14.09l13.22-13.89l-3.77-1.51
	l-6.2-1.04l4.02-3.33l3.16-0.98l4.01,2.2l3.33-6.11l0.76-9.59l3.21-14.15l-2.86-12.34l6.11-3.86l6.96-2.33l2.93-12.94l1.9-5.19
	l4.32-4.83l7.25-10.31l5.66-10.73l13.49-20.5l13.19-8.38l19.6-6.52l2.22-3.7l-5-2.26l0.19-2.25h7.39l2.96-7.19l7.82-5.3l12.99-12.25
	l4.31-11.25l2.68-9l1.3-20.36l21.14-26.72l14.76-36.13l3.57-23.19l3.67-12.52l2.45-18.37l-2.25-19.12l0.64-16l14.71-40.73
	l3.33-16.81l4.53-10.79l6.96-40.19l0.1-20.89l10.65-24.31l13.29-19.78l1.15-18.31l-4.46-14.08L4146.82,1869.74z M3656.9,3135.99
	l-11.96,5.61l-13.01-0.12l-4.51,2.62l0.9,2.6l7.69,5.23l10.41,0.65l9.83-2.53l3.11,6.91l4.78-1.18l6.55-5.96l-4.99-7.19
	L3656.9,3135.99z M3326.33,3158l0.6-7.32l-0.69-0.6l-3.01,3.9l-3.83,1.66l3.54,11.49L3326.33,3158z M1498.42,540.45l-0.49-2.54
	l0.43-7.37l-3.56-1.78l-3.98,3.4l-2.44,9.44l4.07,4.74L1498.42,540.45z M1435.45,620.3l3.3,0.83l3.52-2.68l0.73-4.31l-3.78-4.34
	l-1.28-3.85l-2.94-0.27l-1.43,2.37l-1.98,4.54l3.82,3.99L1435.45,620.3z M582.78,1142.28l5.43-7.58l1.07-6.92l-2.15-4.68l-7.49,7.58
	l-4.26,6.28l0.88,3.82L582.78,1142.28z M1958.76,280.5l17.39-4.96l17.27,6.01l9.68-1.79l-0.33-4.08l-2.13-3.4l-3.55-3.19l-7.7-2.24
	l-2.47-8.19l-4.41-7.74l-0.83-8.43l-3.5-7.8l-4.14-0.02l-4.08,2.23l-9.18,10.99l3.2,5.98l0.97,10.99l-5.46,3.65l-6.25-1.53
	l-2.69,10.02l3.11,3.59L1958.76,280.5z M3264.41,3078.72l-2.76-16.11l-8.45-6.33l-4.85,0.39l-0.89,8.14l-5.6,4.59l-1.64,4.16
	l0.32,9.45l-2.48,8.75l4.57,8.72l-1.1,8.82l2.14,6.18l2.73-0.45l10-4.16l7.17-6.17l2.72-7.49l-3.27-8.75L3264.41,3078.72z
	 M3566.02,3445.12l-2.35,3.88l-0.77,3.47l-2.15,1.85l3.87,2.44l1.05,5.55l2.15,0.95l5.85-0.01l-3.48-13.85L3566.02,3445.12z
	 M3562.28,3467.73l-2.67-0.15l-4.66,5.84l-1.33,4.64l-1.99,0.88l-1.29,3.24l-2.02,2.54l-5.45-1.97l0.03,2.07l4.56,7.83l7.25-1.94
	l7.23,2.01l4.4-11.77l-1.27-5.74L3562.28,3467.73z M3639.77,3392.79l-6.55-2.55l-4.64,5.31l0.75,2.58l-0.11,5.79l1.72,0.49
	l5.24-0.99l-0.35-3.36l6.44-3.24L3639.77,3392.79z M2686.51,2641.67l-8.68,3.82l-22.35-2.48l0.15-1.74l3.48-6.97l-4.72-3.83
	l-5.09-1.6l-18.33-1.34l-22.61,7.56l-42.29,9l-5.56,6.34l-3.59,8.63l4.54,4.8l15.48,10.37l14.71,1.44l10.56-2.42l11.38,1.61
	l5.77-6.01l16.11,4.08l6.18,5.72l13.24-5.06l2.99-9.45l4.54-4.26l15.37-3.2l16.46,4.22l5.09-0.75l5.31-5.12l-7.17-10.3
	L2686.51,2641.67z"/>
</svg>
