<?xml version="1.0" encoding="utf-8"?>
<!-- Generator: Adobe Illustrator 25.0.0, SVG Export Plug-In . SVG Version: 6.00 Build 0)  -->
<svg version="1.1" id="Layer_1" xmlns="http://www.w3.org/2000/svg" xmlns:xlink="http://www.w3.org/1999/xlink" x="0px" y="0px"
	 viewBox="0 0 5000 6000" style="enable-background:new 0 0 5000 6000;" xml:space="preserve">
<style type="text/css">
	.st0{fill:#25B135;}
	.st1{fill-rule:evenodd;clip-rule:evenodd;fill:#25B135;}
</style>
<g>
	<path class="st0" d="M2738.59,1528.45c-20.37-25.46-66.22-17.92-73.8-50.83h76.15c5.09,2.34,28.09-7.67,28.09-7.67
		c38.1-12.83,76.26-10.17,99.07-20.37c35.55-17.87,20.43-73.73,55.86-73.73c15.37,0,22.9,22.98,22.9,38.13
		c0,53.47-53.33,43.13-53.33,89.01c-45.85,10.22-68.7,38.16-122,38.16c-10.12,0-43.16-17.68-45.83-25.43L2738.59,1528.45z"/>
	<path class="st0" d="M2995.21,1403.97c-30.43-5.15-30.43-23.1-25.4-48.47c-33.06-15.09-28.03-43.18-60.91-63.45
		c-20.37-12.88-38.21-10.3-45.8-30.54c48.22,15.18,71.04,45.69,99.03,73.7c20.48,20.29,48.37,15.24,48.37,50.78
		c0,5.22-2.47,12.83,0,17.98C3005.33,1403.97,3000.11,1408.87,2995.21,1403.97z"/>
	<path class="st0" d="M3163.01,1525.75c-30.62-4.81-40.74-30.14-35.65-55.81c15.28,10.01,68.56,65.93,68.56,73.67
		c0,7.62-10.12,20.34-17.73,20.34s-15.18-10.09-15.18-17.7C3163.01,1538.57,3163.01,1533.39,3163.01,1525.75z"/>
	<path class="st0" d="M3658.52,1848.73c0,5.04-2.53,9.96,0,15.07c-25.43,0-43.08-38.13-40.52-53.36
		C3638.24,1823.38,3658.52,1828.37,3658.52,1848.73z"/>
	<path class="st0" d="M3589.88,1805.41c-2.45,0-10.18,5.03-12.67,5.03c-30.52,0-71.28-10.12-71.28-40.45
		C3546.69,1770,3572.18,1779.98,3589.88,1805.41z"/>
	<path class="st0" d="M3592.57,1751.94c-25.45,0-71.19-60.97-73.67-81.09C3554.31,1690.97,3579.71,1713.92,3592.57,1751.94z"/>
	<path class="st0" d="M3373.76,1609.73c22.98,12.81,73.86,27.91,89.12,50.83c-5.14,2.53-12.81,5.11-20.5,5.11
		c-20.15,0-78.65-20.39-78.65-48.37h5.14L3373.76,1609.73z"/>
	<path class="st0" d="M3249.28,1546.26c27.93,20.27,45.85,12.54,61.1,35.44h-22.78l-38.32-25.39c2.45,0,12.78,0,12.78-2.43
		L3249.28,1546.26z"/>
	<path class="st0" d="M2514.91,4227.56c32.96,0,76.06-15.25,111.69-25.32c7.78,30.54,28.04,45.69,28.04,76.04
		c0,56.11-68.58,190.49-119.45,190.49c-76.15,0-160.21-187.79-160.21-241.21C2374.99,4186.77,2512.43,4227.56,2514.91,4227.56z"/>
	<path class="st0" d="M2649.5,4133.63c0,25.37-5.03,30.39-7.54,43.13c-22.85-7.67-25.4-22.87-25.4-43.13
		C2629.19,4136.19,2641.97,4136.19,2649.5,4133.63z"/>
	<path class="st0" d="M1879.5,3803.11c-27.97,17.76-66.14,22.95-89.01,0C1838.76,3780.17,1843.76,3785.31,1879.5,3803.11z"/>
	<path class="st0" d="M2959.67,2936.39c40.44,53.27,65.9,190.67,65.9,266.98c0,55.84-15.07,134.59-37.91,157.62v71.2
		c-12.83,20.26-5.06,30.35-17.85,50.8c-45.85,71.09-91.62,96.49-116.91,177.59c-20.29,61.11-73.81,140.06-73.81,228.91v-5.01
		c-27.93,116.95-236.28,63.53-256.73,185.5c-20.18-2.71-124.5-60.89-127.03-76.33c-58.26,5.16-38.03,55.88-101.71,55.88
		c-99.13,0-261.68-65.87-261.68-170.19c0-38.1-33.07-68.56-35.68-101.63c0,0-2.58-10.25-2.58-12.57
		c-17.66,9.98-30.36,12.57-50.75,17.68h-30.49c7.57-15.36,17.82-30.46,17.82-55.84c0-30.76-15.24-40.79-25.33-50.82
		c0,7.53-5.16,17.57-5.16,25.29c-22.82,10.12-25.35,55.97-63.45,55.97c-12.83,0-25.54-12.83-25.54-25.29
		c63.64-12.95,76.28-145.04,73.89-183.17c-45.91,45.8-109.49,178.02-162.9,178.02c-30.43,0-20.29-45.74-20.29-45.74
		c-17.57,0-73.6-124.61-93.91-152.62c-40.8-50.82-190.78-76.18-274.68-76.18c-91.46,0-109.12,40.48-165.03,58.37
		c-129.81,43.27-289.72-2.53-310.07,127.06c-53.3,5.06-96.71,17.84-152.68,17.84c-40.66-20.37-40.66,0-71.09,0
		c-88.91,0-127.09,83.77-241.39,83.77c-43.13,0-165.11-53.28-165.11-88.85c0-38.03,58.23-55.86,58.23-114.25
		c0-73.84-37.91-114.53-50.79-160.19c-30.39-111.91-37.97-147.43-71.15-246.46c-12.49-38.37-63.34-51.04-50.86-89.17
		c5.22-10.01,7.76-20.29,15.28-32.93c5.03,12.64,15.37,25.45,23.09,32.93c7.4-10.01,0-20.29,0-32.93
		c0-38.21-30.61-68.78-30.61-132.23c0-76.2,0-81.31,0-147.18c0-20.5,17.65-25.65,27.98-30.76c2.63,7.75,2.63,17.81,2.63,25.45
		c48.09-5.19,106.58-68.56,134.43-96.43c30.57-30.49,122.11-35.68,170.41-43.3c91.59-15.25,299.89-86.43,299.89-172.91
		c0-15.31,0-27.72,0-43.13c0-25.59,7.61-50.91,33.02-63.59c12.83,22.93,27.85,32.83,38.1,50.89c28.15-18.05,15.24-55.94,28.15-83.9
		c20.21,10.12,32.91,20.32,53.22,20.32c0-71.18,50.8-81.43,55.86-139.71c68.7,0,81.43-50.85,134.73-50.85
		c45.72,0,71.18,50.85,76.25,96.54c12.79-17.84,33.02-27.93,55.97-27.93c12.7,0,32.94,17.76,38.03,20.18
		c15.31-22.73,7.61-40.47,7.61-63.29c0-35.58,38.1-53.41,38.1-89.13c0-35.48,101.68-58.39,145.01-58.39
		c17.78,0,37.99-15.39,45.79-17.86c-15.47-22.76-40.73-30.51-45.79-58.45c86.37,35.68,137.28,71.18,228.69,71.18
		c32.97,0,43.35-20.31,71.23-20.31c15.15,0,50.75,25.45,50.75,45.85c0,33.02-38.16,35.44-58.52,50.78l-30.49,127.11
		c0,20.26,35.84,15.23,50.85,25.32c15.34,10.09,15.34,48.44,25.46,50.86c68.61,25.32,106.85,38.1,170.22,63.48
		c35.7,12.7,48.36,68.53,96.71,68.53c78.65,0,94.12-149.93,106.66-208.18v-228.8c40.55-30.52,27.96-63.58,71.2-86.52
		c7.75,68.65,40.63,114.31,55.83,162.85c10.2,35.33-2.5,81.12,25.49,101.68c25.4,7.35,73.67,22.82,83.85,27.98
		c30.64,20.15,30.64,101.39,43.3,142.12c22.76,68.73,43.18,101.71,63.58,165.09c20.29,61.1,129.56,83.98,172.83,127.25
		c30.48,30.49,35.46,78.73,45.77,114.33c10.11,33.23,50.75,33.23,83.87,33.23c0,101.42,96.46,144.71,144.74,193.01L2959.67,2936.39z
		"/>
	<path class="st0" d="M4291.33,4354.57c0,0,0-17.66,2.6-25.4c10.09-20.27,25.52-25.35,45.83-28.07c0-4.95,2.52-10.09,2.52-15.06
		c0-38.1,38.03-73.73,60.92-83.79c0,17.49,10.25,25.32,17.81,25.32c0,17.76-2.52,35.52,12.76,35.52c17.79,0,30.43-17.76,43.13-22.9
		c2.58,7.75,10.18,10.14,17.98,10.14c0,20.27,4.84,33.13,15.15,38.29c-7.86,32.91-58.47,126.95-99.24,126.95
		c-7.58,38.18,5.19,48.3,0,78.73c-12.62,0-73.67,12.86-93.99,12.86c-7.67,30.7-78.85,177.78-78.85,177.78
		c-22.87,22.91-68.45,61.06-96.43,61.06c-10.25,0-40.69-12.78-55.91-12.78c-15.43,0-114.55-38.16-114.55-50.75
		c-5.04,0-12.6-5.06-12.6-10.18c0-65.97,76.23-101.79,101.61-139.83c10.11-17.79,22.84-33,40.76-33c60.92,0,99.16-63.39,142.34-83.9
		C4255.81,4410.57,4291.33,4354.57,4291.33,4354.57z"/>
	<path class="st0" d="M4537.88,3907.28c-7.67-20.31-27.84-27.93-27.84-48.27c0-7.61,4.97-17.76,7.61-25.32
		c-58.53-10.2-94-94.2-109.35-155.1c27.93,43.11,71.19,45.66,96.52,71.17c15.36,15.4,15.36,33.07,30.54,40.69
		c-2.48,7.62-10.12,10.2-10.12,17.95c0,12.48,30.43,68.43,43.3,81.1h15.15c0-15.28,10.17-25.53,22.79-25.53c5.11,0,10.31,0,15.39,0
		c0,66.16,33,104.34,94,104.34c48.3,0,45.69-25.51,86.37-25.51c7.58,0,15.42,7.67,20.42,15.4c-35.7,35.46-25.32,88.87-50.72,127.16
		l-10.38-12.86c-2.53,0-5.12,7.61-7.54,7.61c-25.4,5.25-50.88,12.76-50.88,33.04c0,7.64,10.15,17.89,10.15,25.4
		c0,17.87-30.55,43.19-35.61,50.8c-25.32,38.21-40.54,88.93-93.99,88.93c-22.85,0-38-12.48-38-32.96
		c0-30.57,30.39-43.08,30.39-73.62c0-50.91-94.16-30.64-94.16-76.31c0-25.4,22.91-28.12,35.74-40.6
		c25.4-25.65,30.57-61.13,30.57-99.21c0-20.21-10.34-48.31-12.86-58.56h2.53V3907.28z"/>
	<path class="st0" d="M4779.38,2344.32c7.57,12.6,17.95,20.31,30.43,22.82v30.48c-15.17,15.18-15.17,10.23-35.38,10.23
		c-20.43,0-53.52-5.01-53.52-15.29C4720.91,2359.37,4756.42,2352.02,4779.38,2344.32z"/>
	<path class="st0" d="M4901.2,2270.54c0,7.54,0,15.1,0,22.85c-30.3,7.75-37.91,33.1-63.32,33.1c-7.73,0-15.24-15.43-15.24-22.93
		C4822.64,2273.13,4886.1,2270.54,4901.2,2270.54z"/>
	<path class="st1" d="M2173.07,1290.72c37.05,14.1,80.53,24.19,115.53,24.19c30.68,0,45.91,35.57,76.18,35.57
		c0,20.46,20.46,22.88,33.07,25.37c81.37,25.49,78.79,94.1,140.01,124.59c25.32,12.78,78.7-15.25,78.7,40.71
		c0,27.96-48.33,17.65-48.33,40.54c0,12.79,43.32,55.95,48.33,61.03c25.4,25.43,20.31,43.32,40.61,73.73
		c7.61,12.67,38.09,25.49,55.97,25.49c7.61,0,15.23,17.76,20.37,28.06c5.05,12.51,20.26,2.45,30.38,4.98
		c15.2,5.03,20.37,20.29,25.59,30.43c4.95,12.75,43.13,7.58,50.79,10.06c-15.47,10.17-33.18,22.9-33.18,40.76h-15.25
		c-4.96,0-43.19-25.35-48.22-30.59h-66.22c-37.99-7.48-96.52-35.49-96.52-63.39c0-10.31-20.29-15.23-25.37-20.31
		c-50.82-50.97-96.49-121.95-180.52-121.95c-63.51,0-58.37,45.69-93.88,63.37c10.03,33.09-12.81,43.34-12.81,61.1h-96.62
		c-44.16,0-66.7-35.17-96.52-58.49L2173.07,1290.72z"/>
</g>
</svg>
