<?xml version="1.0" standalone="no"?>
<!DOCTYPE svg PUBLIC "-//W3C//DTD SVG 20010904//EN"
 "http://www.w3.org/TR/2001/REC-SVG-20010904/DTD/svg10.dtd">
<svg version="1.0" xmlns="http://www.w3.org/2000/svg"
 width="551.000000pt" height="125.000000pt" viewBox="0 0 551.000000 125.000000"
 preserveAspectRatio="xMidYMid meet">
<metadata>
Created by potrace 1.15, written by Peter Selinger 2001-2017
</metadata>
<g transform="translate(0.000000,125.000000) scale(0.100000,-0.100000)"
fill="#000000" stroke="none">
<path d="M0 635 l0 -615 120 0 120 0 0 250 0 251 92 -3 92 -3 141 -247 140
-247 138 -1 c75 0 137 2 137 5 0 3 -64 117 -141 253 -78 136 -143 250 -145
253 -2 4 22 19 54 35 73 36 147 105 179 167 44 88 46 243 4 325 -44 85 -146
157 -259 181 -32 7 -173 11 -362 11 l-310 0 0 -615z m637 385 c55 -25 83 -70
83 -135 0 -60 -25 -106 -72 -132 -28 -15 -63 -19 -220 -21 l-188 -4 0 156 0
156 178 0 c153 0 183 -3 219 -20z"/>
<path d="M3820 625 l0 -605 115 0 115 0 0 605 0 605 -115 0 -115 0 0 -605z"/>
<path d="M5092 663 c3 -466 3 -468 26 -515 26 -53 88 -113 138 -134 22 -9 72
-14 144 -14 l110 0 0 100 0 100 -64 0 c-49 0 -69 5 -90 21 l-26 20 0 235 0
234 90 0 90 0 0 95 0 95 -90 0 -90 0 0 115 0 115 -121 0 -120 0 3 -467z"/>
<path d="M1288 901 c-81 -27 -136 -61 -195 -123 -60 -65 -88 -115 -108 -200
-54 -228 45 -447 245 -542 62 -30 70 -31 195 -31 112 0 138 3 188 24 70 28
163 110 200 178 l26 49 -80 47 c-44 26 -84 47 -88 47 -4 0 -21 -20 -39 -44
-40 -58 -94 -93 -160 -106 -59 -11 -101 -5 -152 21 -60 30 -120 109 -120 159
0 20 4 20 330 20 l330 0 0 84 c0 192 -89 334 -255 407 -71 32 -236 37 -317 10z
m270 -195 c26 -18 51 -47 67 -80 l26 -51 -222 -3 c-122 -1 -224 0 -227 3 -14
14 58 103 108 133 51 31 60 33 131 30 64 -3 82 -7 117 -32z"/>
<path d="M3101 905 c-129 -36 -248 -131 -297 -238 -35 -78 -50 -198 -35 -289
39 -237 214 -378 470 -378 150 0 250 36 347 123 56 51 94 115 119 201 21 73
16 237 -9 306 -41 113 -150 218 -273 262 -76 28 -244 34 -322 13z m244 -224
c140 -62 186 -249 92 -373 -67 -88 -208 -121 -303 -71 -52 28 -108 90 -124
138 -20 60 -8 167 23 214 71 107 194 143 312 92z"/>
<path d="M1853 886 c3 -7 83 -205 178 -440 l173 -427 109 3 109 3 169 415 c93
228 172 425 175 438 l6 23 -122 -3 -123 -3 -106 -282 c-58 -155 -109 -279
-112 -275 -4 4 -53 132 -110 285 l-104 277 -124 0 c-100 0 -122 -3 -118 -14z"/>
<path d="M4170 627 c0 -154 5 -299 11 -332 22 -122 87 -206 198 -259 64 -30
71 -31 201 -31 127 0 139 2 195 28 111 52 182 143 204 262 6 33 11 178 11 332
l0 273 -114 0 -115 0 -3 -272 c-3 -261 -4 -275 -26 -315 -32 -60 -86 -86 -167
-81 -72 4 -113 29 -141 85 -17 34 -19 68 -22 311 l-3 272 -115 0 -114 0 0
-273z"/>
</g>
</svg>
